<svg id="Layer_1" data-name="Layer 1" xmlns="http://www.w3.org/2000/svg" xmlns:xlink="http://www.w3.org/1999/xlink" viewBox="0 0 540 505"><defs><style>.cls-1,.cls-5{fill:none;}.cls-2{fill:#001c54;}.cls-3{opacity:0.3;}.cls-4{clip-path:url(#clip-path);}.cls-5{stroke:#4495d1;stroke-miterlimit:10;stroke-width:2px;}.cls-6{clip-path:url(#clip-path-2);}</style><clipPath id="clip-path"><rect class="cls-1" width="540" height="505"/></clipPath><clipPath id="clip-path-2"><rect class="cls-1" x="-667.92" y="572" width="1920" height="540"/></clipPath></defs><rect class="cls-2" width="540" height="505"/><g class="cls-3"><g class="cls-4"><path class="cls-5" d="M161.6,62.37a8.3,8.3,0,0,0-13.76-9.3,372.77,372.77,0,0,0-39.23,75.32,8.3,8.3,0,0,0,4.78,10.73,8.31,8.31,0,0,0,10.73-4.79A356.52,356.52,0,0,1,161.6,62.37Z"/><path class="cls-5" d="M127.29,269.64a8.31,8.31,0,0,0,8.31-8.31c0-177,144-321.19,321-321.37h.09a198.6,198.6,0,0,0,90.93-22.08,200.67,200.67,0,0,0,68.91-58.84,8.3,8.3,0,0,0-1.76-11.61,8.29,8.29,0,0,0-11.61,1.75A182.79,182.79,0,0,1,456.82-76.64h-.08C270.5-76.52,119,75.1,119,261.33A8.31,8.31,0,0,0,127.29,269.64Z"/><path class="cls-5" d="M456.75,79.45a8.31,8.31,0,1,0,0-16.61h0a198.76,198.76,0,0,0-197.31,179,8.31,8.31,0,0,0,7.46,9.08c.27,0,.54,0,.81,0a8.31,8.31,0,0,0,8.26-7.5A181.2,181.2,0,0,1,456.75,79.45Z"/><path class="cls-5" d="M456.74,202.33h0a59.13,59.13,0,0,0-58.74,59,8.31,8.31,0,1,0,16.61,0,42.48,42.48,0,0,1,42.21-42.39,8.31,8.31,0,0,0,0-16.61Z"/><path class="cls-5" d="M-3.89,261.33A8.3,8.3,0,0,0-12.2,253h0a8.29,8.29,0,0,0-8.3,8.31A474,474,0,0,0,11.8,433.77a8.29,8.29,0,0,0,7.74,5.3,8.19,8.19,0,0,0,3-.57,8.3,8.3,0,0,0,4.72-10.75A457.73,457.73,0,0,1-3.89,261.33Z"/><path class="cls-5" d="M31,261.43v-.1A424.43,424.43,0,0,1,144.45-27.84,8.32,8.32,0,0,0,144-39.58a8.32,8.32,0,0,0-11.74.45A441.07,441.07,0,0,0,14.37,261.2v.14a442.31,442.31,0,0,0,15.1,114.57,8.3,8.3,0,0,0,8,6.15,8,8,0,0,0,2.16-.29,8.3,8.3,0,0,0,5.87-10.17A426,426,0,0,1,31,261.43Z"/><path class="cls-5" d="M130.13,555.1a8.3,8.3,0,0,0,6.25-13.77A426.4,426.4,0,0,1,66.54,431.47a8.3,8.3,0,0,0-15.21,6.67,442.84,442.84,0,0,0,72.55,114.13A8.29,8.29,0,0,0,130.13,555.1Z"/><path class="cls-5" d="M72.68,397.43a410.67,410.67,0,0,0,99.61,155.3,8.31,8.31,0,0,0,11.6-11.89,394,394,0,0,1-95.56-149,8.31,8.31,0,0,0-15.65,5.57Z"/><path class="cls-5" d="M162.3,409.11a8.31,8.31,0,0,0-3.39,11.25A340.13,340.13,0,0,0,203,483.85a8.3,8.3,0,0,0,12.48-11,323.36,323.36,0,0,1-41.89-60.38A8.31,8.31,0,0,0,162.3,409.11Z"/><path class="cls-5" d="M273.72,502.41a8.3,8.3,0,1,0,10.06-13.21c-71.92-54.75-113.21-137.76-113.31-227.78v-.09A284.51,284.51,0,0,1,189,159.86,8.3,8.3,0,0,0,173.5,154,301.12,301.12,0,0,0,153.86,261.2c0,.05,0,.09,0,.14A299.36,299.36,0,0,0,186.55,398,306.68,306.68,0,0,0,273.72,502.41Z"/><path class="cls-5" d="M465.27,521a8.31,8.31,0,0,0-8.31-8.31A251.29,251.29,0,0,1,246.74,399.25a8.31,8.31,0,0,0-13.87,9.14A267.86,267.86,0,0,0,457,529.35,8.31,8.31,0,0,0,465.27,521Z"/><path class="cls-5" d="M280,331.31a8.3,8.3,0,0,0-4.16,11A198.16,198.16,0,0,0,323,407.49a8.31,8.31,0,1,0,11.22-12.25A181.73,181.73,0,0,1,291,335.48,8.3,8.3,0,0,0,280,331.31Z"/><path class="cls-5" d="M457,459.6h0c7.23,0,14.53.26,21.7.74a5.33,5.33,0,0,0,.56,0,8.3,8.3,0,0,0,.56-16.59c-7.54-.51-15.21-.77-22.81-.78h0a180.12,180.12,0,0,1-74.36-15.9,8.31,8.31,0,1,0-6.81,15.15A196.55,196.55,0,0,0,457,459.6Z"/><path class="cls-5" d="M457,303.51a8.31,8.31,0,0,0,0,16.61,461.76,461.76,0,0,1,101.2,11.24,8.3,8.3,0,1,0,3.65-16.2A477.67,477.67,0,0,0,457,303.51Z"/><path class="cls-5" d="M772.71,495.57A8.3,8.3,0,0,0,785,484.43a441.6,441.6,0,0,0-328-146h0A77.42,77.42,0,0,1,399.78,313h0a77.12,77.12,0,0,1-20.07-51.66v0a77.39,77.39,0,0,1,77-77.26h0A444.49,444.49,0,0,0,536,177a8.3,8.3,0,1,0-3-16.34,428.88,428.88,0,0,1-76.26,6.84h0a94,94,0,0,0-93.63,93.85v.05A94,94,0,0,0,456.93,355h0A426.88,426.88,0,0,1,772.71,495.57Z"/><path class="cls-5" d="M457,373.25h0A112.32,112.32,0,0,1,344.82,261.32a8.31,8.31,0,0,0-8.31-8.29h0a8.3,8.3,0,0,0-8.29,8.32c.13,70.86,57.89,128.51,128.75,128.51h0c12.62,0,25.35.63,37.84,1.84.28,0,.55,0,.82,0a8.3,8.3,0,0,0,.79-16.57C483.4,373.9,470.13,373.26,457,373.25Z"/><path class="cls-5" d="M684.73,607.67a8.31,8.31,0,0,0,13.21-10.07,306.63,306.63,0,0,0-104.41-87.08A299.41,299.41,0,0,0,457,477.86h0c-119.36,0-216.57-97.08-216.75-216.43v-.1a216.44,216.44,0,0,1,7.88-58,8.3,8.3,0,1,0-16-4.45,233.38,233.38,0,0,0-8.49,62.31v.15c.13,128.54,104.8,233.11,233.33,233.13h0C547,494.54,630,535.8,684.73,607.67Z"/><path class="cls-5" d="M457,617.35h0c-196.28,0-356.06-159.68-356.23-356,0,0,0,0,0-.07a358.68,358.68,0,0,1,3.64-51,8.3,8.3,0,1,0-16.44-2.37,374.37,374.37,0,0,0-3.81,53.3s0,.06,0,.1C84.24,466.8,251.5,634,457,634h0c80.94.13,146.78,66.08,146.78,147a8.31,8.31,0,1,0,16.61,0C620.36,690.88,547.07,617.48,457,617.35Z"/><path class="cls-5" d="M792.32,69.13a8.31,8.31,0,0,0-11.74-.07c-71.27,70.46-161,115-259.58,128.81a8.3,8.3,0,0,0,1.14,16.53,9.17,9.17,0,0,0,1.16-.08,473.25,473.25,0,0,0,146.77-45.74A478.93,478.93,0,0,0,792.26,80.87,8.3,8.3,0,0,0,792.32,69.13Z"/><path class="cls-5" d="M641.65,104.81a412.55,412.55,0,0,0,141-118.53A8.3,8.3,0,0,0,781-25.35a8.3,8.3,0,0,0-11.63,1.64c-74.8,99.33-188.74,156.3-312.59,156.3a8.31,8.31,0,0,0,0,16.61A402.68,402.68,0,0,0,641.65,104.81Z"/><path class="cls-5" d="M456.87,97.71h-.14c-90,.13-163.28,73.43-163.38,163.43,0,.07,0,.14,0,.2.13,90.08,73.5,163.36,163.57,163.39h0A356.84,356.84,0,0,1,749.67,578.45,8.3,8.3,0,0,0,763.32,569,373.45,373.45,0,0,0,457,408.12h0c-80.9,0-146.82-65.79-147-146.67,0,0,0-.08,0-.12,0-80.9,65.78-146.82,146.67-147h.11c205.46,0,372.72-167.16,372.85-372.62a8.32,8.32,0,0,0-8.3-8.32h0a8.31,8.31,0,0,0-8.31,8.3C812.86-62,653.12,97.65,456.87,97.71Z"/><path class="cls-5" d="M456.83,28h-.1a232.76,232.76,0,0,0-52.83,6.09,8.3,8.3,0,0,0,1.88,16.39,8.19,8.19,0,0,0,1.89-.22,216.8,216.8,0,0,1,49-5.65h.09c167,0,303-135.87,303.11-302.87a8.32,8.32,0,0,0-8.3-8.32h0a8.31,8.31,0,0,0-8.3,8.3C743.12-100.48,614.64,27.92,456.83,28Z"/><path class="cls-5" d="M456.74,9.71A267.7,267.7,0,0,0,662.84-87a8.31,8.31,0,0,0-1.07-11.7,8.3,8.3,0,0,0-11.69,1.06A251.12,251.12,0,0,1,456.85-6.9h-.12A268.68,268.68,0,0,0,192.36,217.18a8.31,8.31,0,0,0,6.83,9.56,8,8,0,0,0,1.37.11,8.32,8.32,0,0,0,8.19-6.94A250.79,250.79,0,0,1,456.64,9.71Z"/><path class="cls-5" d="M456.85-146.39h-.11A408.29,408.29,0,0,0,51,223.47a8.31,8.31,0,0,0,7.5,9q.39,0,.78,0A8.31,8.31,0,0,0,67.53,225C85.92,26.22,256.81-129.6,456.62-129.78h.12A129.36,129.36,0,0,0,573.51-204.3a8.31,8.31,0,0,0-4-11,8.29,8.29,0,0,0-11,4A112.68,112.68,0,0,1,456.85-146.39Z"/></g></g><g class="cls-3"><g class="cls-6"><path class="cls-5" d="M56.94,445.23a8.33,8.33,0,0,0,1.31,11.68A460.36,460.36,0,0,1,210.91,679.33a8.31,8.31,0,1,0,15.85-5,475.65,475.65,0,0,0-62.32-127.62,481.14,481.14,0,0,0-95.82-102.8A8.32,8.32,0,0,0,56.94,445.23Z"/><path class="cls-5" d="M-237.21,487.44a8.31,8.31,0,0,0,8.3,8.31c177.05,0,321.19,144,321.37,321v.09a198.75,198.75,0,0,0,22.07,90.93,200.88,200.88,0,0,0,58.84,68.91,8.31,8.31,0,1,0,9.86-13.37A182.75,182.75,0,0,1,109.07,817v-.08h0c-.13-186.23-151.75-337.75-338-337.75A8.31,8.31,0,0,0-237.21,487.44Z"/><path class="cls-5" d="M-229,391.13h.1A424.47,424.47,0,0,1,60.26,504.59a8.3,8.3,0,1,0,11.29-12.18A441,441,0,0,0-228.78,374.52h-.13a442.67,442.67,0,0,0-114.57,15.09,8.32,8.32,0,0,0-6.15,8,8.48,8.48,0,0,0,.28,2.16,8.31,8.31,0,0,0,10.18,5.87A425.47,425.47,0,0,1-229,391.13Z"/><path class="cls-5" d="M178.81,817s0-.06,0-.1h0A406.45,406.45,0,0,0,71.49,541.71,406.66,406.66,0,0,0-191,411.14a8.29,8.29,0,0,0-9,7.5,6.79,6.79,0,0,0,0,.78,8.31,8.31,0,0,0,7.54,8.26C6.21,446.07,162,617,162.2,816.76v.13a129.34,129.34,0,0,0,74.53,116.77,8.31,8.31,0,0,0,7-15.06A112.67,112.67,0,0,1,178.81,817Z"/><path class="cls-5" d="M400.14,613a461.59,461.59,0,0,1,98.67-132.49,8.31,8.31,0,0,0-11.35-12.14,478.26,478.26,0,0,0-102.2,137.25A8.3,8.3,0,0,0,400.14,613Z"/><path class="cls-5" d="M519.3,490.28a8.31,8.31,0,0,0,13.78,6.25,426.34,426.34,0,0,1,109.85-69.84,8.31,8.31,0,0,0-6.67-15.22A443.26,443.26,0,0,0,522.14,484,8.27,8.27,0,0,0,519.3,490.28Z"/><path class="cls-5" d="M677,432.83a410.8,410.8,0,0,0-155.29,99.6A8.31,8.31,0,1,0,533.56,544a394,394,0,0,1,149-95.56A8.31,8.31,0,0,0,677,432.83Z"/><path class="cls-5" d="M866.47,448.08a374.58,374.58,0,0,0-53.3-3.81h-.1c-205.47.13-372.62,167.39-372.62,372.85h0c-.14,80.94-66.08,146.78-147,146.78a8.83,8.83,0,0,0-1.37.12,8.2,8.2,0,0,0-1.32-.12,147.75,147.75,0,0,1-133.12-85.1,8.31,8.31,0,1,0-15.06,7,163.82,163.82,0,0,0,148.15,94.69,7.9,7.9,0,0,0,1.39-.12,8.43,8.43,0,0,0,1.33.12c90.09,0,163.49-73.3,163.63-163.39h0v0c0-196.27,159.67-356,355.94-356.22h.07a358.72,358.72,0,0,1,51,3.65,8.3,8.3,0,0,0,2.37-16.44Z"/></g></g></svg>