<svg id="Layer_1" data-name="Layer 1" xmlns="http://www.w3.org/2000/svg" xmlns:xlink="http://www.w3.org/1999/xlink" viewBox="0 0 540 505"><defs><style>.cls-1,.cls-5,.cls-8{fill:none;}.cls-2{fill:#493d81;}.cls-3{opacity:0.3;}.cls-4{clip-path:url(#clip-path);}.cls-5{stroke:#b292c4;}.cls-5,.cls-8{stroke-miterlimit:10;stroke-width:2px;}.cls-6{clip-path:url(#clip-path-2);}.cls-7{clip-path:url(#clip-path-3);}.cls-8{stroke:#4495d1;}</style><clipPath id="clip-path"><rect class="cls-1" width="540" height="505"/></clipPath><clipPath id="clip-path-2"><rect class="cls-1" x="-1408" y="572" width="1920" height="540"/></clipPath><clipPath id="clip-path-3"><rect class="cls-1" x="610" y="572" width="1920" height="540"/></clipPath></defs><rect class="cls-2" width="540" height="505"/><g class="cls-3"><g class="cls-4"><path class="cls-5" d="M514.45,368.6a8.52,8.52,0,0,0-7.77,8.6v67.34a8.55,8.55,0,0,0,7.81,8.65,8.34,8.34,0,0,0,8.85-8.32v-68A8.33,8.33,0,0,0,514.45,368.6Z"/><path class="cls-5" d="M515,31.73a8.33,8.33,0,0,0-8.33,8.33V312.48a8.33,8.33,0,0,0,16.66,0V40.06A8.33,8.33,0,0,0,515,31.73Z"/><path class="cls-5" d="M480,77.7A8.33,8.33,0,0,0,471.69,86V479.85a8.33,8.33,0,1,0,16.66,0V86A8.33,8.33,0,0,0,480,77.7Z"/><path class="cls-5" d="M480-61.44a8.33,8.33,0,0,0-8.33,8.33v70a8.33,8.33,0,1,0,16.66,0v-70A8.33,8.33,0,0,0,480-61.44Z"/><path class="cls-5" d="M445,354.37a8.33,8.33,0,0,0-8.33,8.33V510.57a8.34,8.34,0,0,0,16.67,0V362.7A8.33,8.33,0,0,0,445,354.37Z"/><path class="cls-5" d="M445,111.75a8.33,8.33,0,0,0-8.33,8.33v153a8.34,8.34,0,0,0,16.67,0v-153A8.33,8.33,0,0,0,445,111.75Z"/><path class="cls-5" d="M445-296.76a8.33,8.33,0,0,0-8.33,8.33V51.84a8.34,8.34,0,0,0,16.67,0V-288.43A8.33,8.33,0,0,0,445-296.76Z"/><path class="cls-5" d="M410.05,238.91a8.32,8.32,0,0,0-8.33,8.33V560a8.33,8.33,0,0,0,16.66,0V247.24A8.32,8.32,0,0,0,410.05,238.91Z"/><path class="cls-5" d="M410.05-9a8.33,8.33,0,0,0-8.33,8.33V190.05a8.33,8.33,0,0,0,16.66,0V-.64A8.33,8.33,0,0,0,410.05-9Z"/><path class="cls-5" d="M375.06,154.56a8.33,8.33,0,0,0-8.33,8.33v331a8.33,8.33,0,1,0,16.66,0v-331A8.33,8.33,0,0,0,375.06,154.56Z"/><path class="cls-5" d="M375.06-350.22a8.33,8.33,0,0,0-8.33,8.33V34.35a8.33,8.33,0,0,0,16.66,0V-341.89A8.33,8.33,0,0,0,375.06-350.22Z"/><path class="cls-5" d="M340.07,412.59a8.33,8.33,0,0,0-8.33,8.33v99.73a8.34,8.34,0,0,0,16.67,0V420.92A8.34,8.34,0,0,0,340.07,412.59Z"/><path class="cls-5" d="M339.52-131.39a8.53,8.53,0,0,0-7.78,8.6V194.64a8.55,8.55,0,0,0,7.82,8.64,8.33,8.33,0,0,0,8.85-8.31v-318A8.34,8.34,0,0,0,339.52-131.39Z"/><path class="cls-5" d="M305.09,243a8.34,8.34,0,0,0-8.34,8.33V442.75a8.34,8.34,0,0,0,16.67,0V251.29A8.33,8.33,0,0,0,305.09,243Z"/><path class="cls-5" d="M305.09,77.7A8.34,8.34,0,0,0,296.75,86v65.61a8.34,8.34,0,0,0,16.67,0V86A8.33,8.33,0,0,0,305.09,77.7Z"/><path class="cls-5" d="M270.1,329.47a8.33,8.33,0,0,0-8.33,8.33V534a8.33,8.33,0,1,0,16.66,0V337.8A8.33,8.33,0,0,0,270.1,329.47Z"/><path class="cls-5" d="M270.1,119.58a8.33,8.33,0,0,0-8.33,8.33V260a8.33,8.33,0,1,0,16.66,0V127.91A8.33,8.33,0,0,0,270.1,119.58Z"/><path class="cls-5" d="M270.1-177.88a8.33,8.33,0,0,0-8.33,8.33V44.9a8.33,8.33,0,1,0,16.66,0V-169.55A8.33,8.33,0,0,0,270.1-177.88Z"/><path class="cls-5" d="M235.11,243a8.33,8.33,0,0,0-8.33,8.33V363.23a8.33,8.33,0,1,0,16.66,0V251.29A8.33,8.33,0,0,0,235.11,243Z"/><path class="cls-1" d="M235.11-9a8.33,8.33,0,0,0-8.33,8.33V151.64a8.33,8.33,0,1,0,16.66,0V-.64A8.33,8.33,0,0,0,235.11-9Z"/><path class="cls-5" d="M235.42,136.5a8.33,8.33,0,0,1-8.33-8.33V18a8.33,8.33,0,1,1,16.66,0V128.17A8.33,8.33,0,0,1,235.42,136.5Z"/><path class="cls-5" d="M200.43,199.53a8.33,8.33,0,0,1-8.33-8.33V-128.53a8.33,8.33,0,0,1,8.33-8.33,8.33,8.33,0,0,1,8.33,8.33V191.2A8.33,8.33,0,0,1,200.43,199.53Z"/><path class="cls-5" d="M200.43,625.41a8.33,8.33,0,0,1-8.33-8.33V399.36a8.33,8.33,0,1,1,16.66,0V617.08A8.33,8.33,0,0,1,200.43,625.41Z"/><path class="cls-5" d="M165.44.39a8.33,8.33,0,0,1-8.33-8.33V-164.73a8.33,8.33,0,0,1,8.33-8.33,8.33,8.33,0,0,1,8.34,8.33V-7.94A8.33,8.33,0,0,1,165.44.39Z"/><path class="cls-5" d="M165.44,625.41a8.33,8.33,0,0,1-8.33-8.33V167.34a8.34,8.34,0,1,1,16.67,0V617.08A8.33,8.33,0,0,1,165.44,625.41Z"/><path class="cls-5" d="M130.46,434.85a8.33,8.33,0,0,1-8.33-8.33V99.77a8.33,8.33,0,1,1,16.66,0V426.52A8.33,8.33,0,0,1,130.46,434.85Z"/><path class="cls-5" d="M95.47,141.34A8.33,8.33,0,0,1,87.14,133V-139.41a8.33,8.33,0,0,1,8.33-8.33,8.33,8.33,0,0,1,8.33,8.33V133A8.33,8.33,0,0,1,95.47,141.34Z"/><path class="cls-5" d="M95.47,625.41a8.33,8.33,0,0,1-8.33-8.33V278.65a8.33,8.33,0,0,1,16.66,0V617.08A8.33,8.33,0,0,1,95.47,625.41Z"/><path class="cls-5" d="M60.48,95.37A8.33,8.33,0,0,1,52.15,87V-306.79a8.33,8.33,0,0,1,8.33-8.33,8.33,8.33,0,0,1,8.34,8.33V87A8.33,8.33,0,0,1,60.48,95.37Z"/><path class="cls-5" d="M60.48,234.51a8.33,8.33,0,0,1-8.33-8.33v-70a8.34,8.34,0,0,1,16.67,0v70A8.33,8.33,0,0,1,60.48,234.51Z"/><path class="cls-5" d="M60.48,625.41a8.33,8.33,0,0,1-8.33-8.33V399.36a8.34,8.34,0,0,1,16.67,0V617.08A8.33,8.33,0,0,1,60.48,625.41Z"/><path class="cls-5" d="M25.5,61.32A8.33,8.33,0,0,1,17.17,53V-100a8.33,8.33,0,0,1,8.33-8.33A8.33,8.33,0,0,1,33.83-100V53A8.33,8.33,0,0,1,25.5,61.32Z"/><path class="cls-5" d="M25.5,469.83a8.33,8.33,0,0,1-8.33-8.34V121.23a8.33,8.33,0,1,1,16.66,0V461.49A8.33,8.33,0,0,1,25.5,469.83Z"/></g></g><g class="cls-3"><g class="cls-6"><path class="cls-5" d="M270.46,500a8.33,8.33,0,0,0-8.33,8.33V559a8.33,8.33,0,0,0,16.66,0V508.33A8.33,8.33,0,0,0,270.46,500Z"/><path class="cls-5" d="M235.48,500a8.33,8.33,0,0,0-8.34,8.33V726.05a8.34,8.34,0,0,0,16.67,0V508.33A8.33,8.33,0,0,0,235.48,500Z"/><path class="cls-5" d="M200.49,500a8.33,8.33,0,0,0-8.33,8.33V990.07a8.33,8.33,0,1,0,16.66,0V508.33A8.33,8.33,0,0,0,200.49,500Z"/><path class="cls-5" d="M165.5,500a8.33,8.33,0,0,0-8.33,8.33v70.54a8.33,8.33,0,1,0,16.66,0V508.33A8.33,8.33,0,0,0,165.5,500Z"/><path class="cls-5" d="M130.52,500a8.33,8.33,0,0,0-8.34,8.33V846.76a8.34,8.34,0,0,0,16.67,0V508.33A8.33,8.33,0,0,0,130.52,500Z"/><path class="cls-5" d="M95.53,500a8.33,8.33,0,0,0-8.33,8.33V726.05a8.33,8.33,0,0,0,16.66,0V508.33A8.33,8.33,0,0,0,95.53,500Z"/><path class="cls-5" d="M60.54,500a8.33,8.33,0,0,0-8.33,8.33V559a8.33,8.33,0,0,0,16.66,0V508.33A8.33,8.33,0,0,0,60.54,500Z"/><path class="cls-5" d="M25.56,500a8.33,8.33,0,0,0-8.34,8.33v352a8.34,8.34,0,0,0,16.67,0v-352A8.33,8.33,0,0,0,25.56,500Z"/><path class="cls-5" d="M481.21,344.69a8.33,8.33,0,0,1-8.33-8.33V188.49a8.33,8.33,0,0,1,16.66,0V336.36A8.33,8.33,0,0,1,481.21,344.69Z"/><path class="cls-5" d="M481.21,587.32a8.33,8.33,0,0,1-8.33-8.33V426a8.33,8.33,0,0,1,16.66,0V579A8.33,8.33,0,0,1,481.21,587.32Z"/><path class="cls-5" d="M446.22,460.16a8.33,8.33,0,0,1-8.33-8.33V139.1a8.33,8.33,0,1,1,16.66,0V451.83A8.33,8.33,0,0,1,446.22,460.16Z"/><path class="cls-5" d="M446.22,708a8.33,8.33,0,0,1-8.33-8.34V509a8.33,8.33,0,0,1,16.66,0V699.7A8.33,8.33,0,0,1,446.22,708Z"/><path class="cls-5" d="M411.23,544.51a8.33,8.33,0,0,1-8.33-8.33v-331a8.34,8.34,0,0,1,16.67,0v331A8.34,8.34,0,0,1,411.23,544.51Z"/><path class="cls-5" d="M376.25,286.48a8.33,8.33,0,0,1-8.33-8.33V178.42a8.33,8.33,0,1,1,16.66,0v99.73A8.33,8.33,0,0,1,376.25,286.48Z"/><path class="cls-5" d="M375.69,830.45a8.51,8.51,0,0,1-7.77-8.59V504.43a8.55,8.55,0,0,1,7.81-8.65,8.34,8.34,0,0,1,8.85,8.32v318A8.33,8.33,0,0,1,375.69,830.45Z"/><path class="cls-5" d="M341.26,186.75a8.33,8.33,0,0,1-8.33-8.33V82a8.33,8.33,0,1,1,16.66,0v96.43A8.33,8.33,0,0,1,341.26,186.75Z"/><path class="cls-5" d="M341.26,456.1a8.33,8.33,0,0,1-8.33-8.33V256.32a8.33,8.33,0,1,1,16.66,0V447.77A8.33,8.33,0,0,1,341.26,456.1Z"/><path class="cls-5" d="M306.27,369.6a8.33,8.33,0,0,1-8.33-8.33V165a8.33,8.33,0,0,1,16.66,0V361.27A8.33,8.33,0,0,1,306.27,369.6Z"/><path class="cls-5" d="M306.27,593.49a8.33,8.33,0,0,1-8.33-8.33V439.06a8.33,8.33,0,0,1,16.66,0v146.1A8.33,8.33,0,0,1,306.27,593.49Z"/><path class="cls-5" d="M271.29,456.1a8.33,8.33,0,0,1-8.34-8.33V335.84a8.34,8.34,0,1,1,16.67,0V447.77A8.33,8.33,0,0,1,271.29,456.1Z"/></g></g><g class="cls-3"><g class="cls-7"><path class="cls-8" d="M693,817.12h0v0c0-196.27,159.67-356,355.94-356.22h.07a358.72,358.72,0,0,1,51,3.65,8.3,8.3,0,0,0,2.37-16.44,374.58,374.58,0,0,0-53.3-3.81h-.1c-205.47.13-372.62,167.39-372.62,372.85h0c-.14,80.94-66.08,146.78-147,146.78a8.31,8.31,0,0,0,0,16.61C619.46,980.51,692.86,907.21,693,817.12Z"/></g></g></svg>