<svg id="Layer_1" data-name="Layer 1" xmlns="http://www.w3.org/2000/svg" xmlns:xlink="http://www.w3.org/1999/xlink" viewBox="0 0 540 505"><defs><style>.cls-1,.cls-5{fill:none;}.cls-2{fill:#015a60;}.cls-3{opacity:0.3;}.cls-4{clip-path:url(#clip-path);}.cls-5{stroke:#7cccbf;stroke-miterlimit:10;stroke-width:2px;}.cls-6{clip-path:url(#clip-path-2);}</style><clipPath id="clip-path"><rect class="cls-1" width="540" height="505"/></clipPath><clipPath id="clip-path-2"><rect class="cls-1" x="-18.02" y="572" width="1920" height="540"/></clipPath></defs><rect class="cls-2" width="540" height="505"/><g class="cls-3"><g class="cls-4"><path class="cls-5" d="M142.05,480.61a8.38,8.38,0,0,0-8.37-8.38H-140.1a8.38,8.38,0,0,0-8.37,8.38A8.37,8.37,0,0,0-140.1,489H133.68A8.37,8.37,0,0,0,142.05,480.61Z"/><path class="cls-5" d="M628.52,480.61a8.38,8.38,0,0,0-8.37-8.38H280A8.38,8.38,0,1,0,280,489H620.15A8.37,8.37,0,0,0,628.52,480.61Z"/><path class="cls-5" d="M95.85,445.45a8.38,8.38,0,0,0-8.37-8.38H-308.3a8.38,8.38,0,0,0-8.38,8.38,8.38,8.38,0,0,0,8.38,8.37H87.48A8.37,8.37,0,0,0,95.85,445.45Z"/><path class="cls-5" d="M235.68,445.45a8.38,8.38,0,0,0-8.37-8.38H157a8.38,8.38,0,0,0,0,16.75h70.32A8.37,8.37,0,0,0,235.68,445.45Z"/><path class="cls-5" d="M628.52,445.45a8.38,8.38,0,0,0-8.37-8.38H401.35a8.38,8.38,0,1,0,0,16.75h218.8A8.37,8.37,0,0,0,628.52,445.45Z"/><path class="cls-5" d="M61.63,410.29a8.38,8.38,0,0,0-8.37-8.38H-100.48a8.37,8.37,0,0,0-8.37,8.38,8.37,8.37,0,0,0,8.37,8.37H53.26A8.37,8.37,0,0,0,61.63,410.29Z"/><path class="cls-5" d="M472.16,410.29a8.37,8.37,0,0,0-8.37-8.38h-342a8.38,8.38,0,1,0,0,16.75h342A8.37,8.37,0,0,0,472.16,410.29Z"/><path class="cls-5" d="M183,375.13a8.38,8.38,0,0,0-8.38-8.38H-17.06a8.38,8.38,0,0,0-8.37,8.38,8.37,8.37,0,0,0,8.37,8.37H174.57A8.38,8.38,0,0,0,183,375.13Z"/><path class="cls-5" d="M628.52,375.13a8.38,8.38,0,0,0-8.37-8.38H266.39a8.38,8.38,0,0,0,0,16.75H620.15A8.37,8.37,0,0,0,628.52,375.13Z"/><path class="cls-5" d="M18.61,340a8.38,8.38,0,0,0-8.38-8.38H-322.42A8.38,8.38,0,0,0-330.8,340a8.38,8.38,0,0,0,8.38,8.37H10.23A8.38,8.38,0,0,0,18.61,340Z"/><path class="cls-5" d="M525.89,340a8.38,8.38,0,0,0-8.37-8.38H139.41a8.38,8.38,0,0,0,0,16.75H517.52A8.37,8.37,0,0,0,525.89,340Z"/><path class="cls-5" d="M306,304.25a8.57,8.57,0,0,0-8.64-7.82h-319a8.59,8.59,0,0,0-8.68,7.86A8.37,8.37,0,0,0-22,313.18H297.62A8.37,8.37,0,0,0,306,304.25Z"/><path class="cls-5" d="M598.71,304.8a8.37,8.37,0,0,0-8.37-8.37H463.79a8.38,8.38,0,0,0,0,16.75H590.34A8.38,8.38,0,0,0,598.71,304.8Z"/><path class="cls-5" d="M95.85,269.64a8.37,8.37,0,0,0-8.37-8.37H21.54a8.38,8.38,0,0,0,0,16.75H87.48A8.38,8.38,0,0,0,95.85,269.64Z"/><path class="cls-5" d="M628.52,269.64a8.37,8.37,0,0,0-8.37-8.37H227.31a8.38,8.38,0,1,0,0,16.75H620.15A8.38,8.38,0,0,0,628.52,269.64Z"/><path class="cls-5" d="M53.76,234.48a8.37,8.37,0,0,0-8.37-8.37H-87.36a8.38,8.38,0,0,0-8.38,8.37,8.38,8.38,0,0,0,8.38,8.38H45.39A8.38,8.38,0,0,0,53.76,234.48Z"/><path class="cls-5" d="M352.69,234.48a8.37,8.37,0,0,0-8.37-8.37H128.81a8.38,8.38,0,0,0,0,16.75H344.32A8.37,8.37,0,0,0,352.69,234.48Z"/><path class="cls-5" d="M542.48,234.48a8.37,8.37,0,0,0-8.37-8.37H401.35a8.38,8.38,0,1,0,0,16.75H534.11A8.38,8.38,0,0,0,542.48,234.48Z"/><path class="cls-1" d="M183,199.32a8.38,8.38,0,0,0-8.38-8.37h-153a8.38,8.38,0,0,0,0,16.75h153A8.38,8.38,0,0,0,183,199.32Z"/><path class="cls-1" d="M418.63,199.32a8.38,8.38,0,0,0-8.38-8.37H332.77a8.38,8.38,0,0,0,0,16.75h77.48A8.38,8.38,0,0,0,418.63,199.32Z"/><path class="cls-5" d="M628.52,199.32a8.37,8.37,0,0,0-8.37-8.37H510.75a8.38,8.38,0,1,0,0,16.75h109.4A8.38,8.38,0,0,0,628.52,199.32Z"/><path class="cls-5" d="M266.05,199.63a8.36,8.36,0,0,1,8.37-8.37h108.2a8.37,8.37,0,0,1,0,16.74H274.42A8.37,8.37,0,0,1,266.05,199.63Z"/><path class="cls-5" d="M36.76,199.63a8.37,8.37,0,0,1,8.37-8.37H155.84a8.37,8.37,0,1,1,0,16.74H45.13A8.37,8.37,0,0,1,36.76,199.63Z"/><path class="cls-5" d="M405.78,164.47a8.37,8.37,0,0,1,8.38-8.37h80.69a8.37,8.37,0,0,1,0,16.74H414.16A8.38,8.38,0,0,1,405.78,164.47Z"/><path class="cls-5" d="M-26.58,164.47a8.36,8.36,0,0,1,8.37-8.37H303.1a8.37,8.37,0,0,1,0,16.74H-18.21A8.37,8.37,0,0,1-26.58,164.47Z"/><path class="cls-5" d="M374.26,128.75a8.58,8.58,0,0,1,8.65-7.82h163a8.6,8.6,0,0,1,8.69,7.86,8.38,8.38,0,0,1-8.36,8.89H382.62A8.38,8.38,0,0,1,374.26,128.75Z"/><path class="cls-5" d="M173.54,129.31a8.38,8.38,0,0,1,8.38-8.38H339.48a8.38,8.38,0,1,1,0,16.75H181.92A8.38,8.38,0,0,1,173.54,129.31Z"/><path class="cls-5" d="M-454.58,129.31a8.38,8.38,0,0,1,8.37-8.38h452a8.38,8.38,0,0,1,0,16.75h-452A8.37,8.37,0,0,1-454.58,129.31Z"/><path class="cls-5" d="M217.78,94.15a8.37,8.37,0,0,1,8.37-8.38H601.86a8.38,8.38,0,0,1,0,16.75H226.15A8.37,8.37,0,0,1,217.78,94.15Z"/><path class="cls-5" d="M-263.07,94.15a8.37,8.37,0,0,1,8.37-8.38H73.67a8.38,8.38,0,0,1,0,16.75H-254.7A8.37,8.37,0,0,1-263.07,94.15Z"/><path class="cls-5" d="M370.44,58.43a8.56,8.56,0,0,1,8.64-7.82h67.68a8.6,8.6,0,0,1,8.68,7.86,8.37,8.37,0,0,1-8.36,8.89H378.79A8.36,8.36,0,0,1,370.44,58.43Z"/><path class="cls-5" d="M31.89,59a8.38,8.38,0,0,1,8.37-8.38H314a8.38,8.38,0,0,1,0,16.75H40.26A8.37,8.37,0,0,1,31.89,59Z"/><path class="cls-5" d="M78.09,23.83a8.38,8.38,0,0,1,8.37-8.38H482.24a8.38,8.38,0,0,1,0,16.75H86.46A8.37,8.37,0,0,1,78.09,23.83Z"/><path class="cls-5" d="M-61.74,23.83a8.38,8.38,0,0,1,8.37-8.38H16.94a8.38,8.38,0,1,1,0,16.75H-53.37A8.37,8.37,0,0,1-61.74,23.83Z"/></g></g><g class="cls-3"><g class="cls-6"><path class="cls-5" d="M391.14,419.7a8.38,8.38,0,0,0,8.37,8.38H510.22a8.38,8.38,0,0,0,0-16.75H399.51A8.37,8.37,0,0,0,391.14,419.7Z"/><path class="cls-5" d="M96.22,419.7a8.38,8.38,0,0,0,8.37,8.38H170a8.38,8.38,0,0,0,0-16.75h-65.4A8.37,8.37,0,0,0,96.22,419.7Z"/><path class="cls-5" d="M327.8,454.86a8.37,8.37,0,0,0,8.37,8.38H553.24a8.38,8.38,0,0,0,0-16.75H336.17A8.37,8.37,0,0,0,327.8,454.86Z"/><path class="cls-5" d="M-100.2,454.86a8.38,8.38,0,0,0,8.37,8.38H127a8.38,8.38,0,0,0,0-16.75H-91.83A8.37,8.37,0,0,0-100.2,454.86Z"/><path class="cls-5" d="M527.92,490a8.38,8.38,0,0,0,8.38,8.38H693.86a8.38,8.38,0,1,0,0-16.75H536.3A8.38,8.38,0,0,0,527.92,490Z"/><path class="cls-5" d="M-100.2,490a8.38,8.38,0,0,0,8.37,8.38h452a8.38,8.38,0,0,0,0-16.75h-452A8.37,8.37,0,0,0-100.2,490Z"/></g></g></svg>